<?xml version="1.0" encoding="UTF-8"?>
<!DOCTYPE svg PUBLIC "-//W3C//DTD SVG 1.1//EN" "http://www.w3.org/Graphics/SVG/1.1/DTD/svg11.dtd">
<!-- Creator: CorelDRAW -->
<svg xmlns="http://www.w3.org/2000/svg" xml:space="preserve" width="6.82666in" height="6.82666in" style="shape-rendering:geometricPrecision; text-rendering:geometricPrecision; image-rendering:optimizeQuality; fill-rule:evenodd; clip-rule:evenodd"
viewBox="0 0 6.82666 6.82666"
 xmlns:xlink="http://www.w3.org/1999/xlink">
 <defs>
  <style type="text/css">
   <![CDATA[
    .fil1 {fill:none}
    .fil0 {fill:#424242}
    .fil3 {fill:#FFFFFE}
    .fil2 {fill:#FFFFFE;fill-rule:nonzero}
   ]]>
  </style>
 </defs>
 <rect class="fil0" width="6.82666" height="6.82666"/>
 <g id="Layer_x0020_1">
  <metadata id="CorelCorpID_0Corel-Layer"/>
  <g id="_465231224">
   <rect id="_465231296" class="fil1" width="6.82666" height="6.82666"/>
   <rect id="_465231152" class="fil1" x="0.853331" y="0.853331" width="5.12" height="5.12"/>
  </g>
  <path class="fil2" d="M5.42614 3.36953l-0.833961 -0.31261 -0.0404173 -0.0266654 -0.81961 -0.870602 7.87402e-006 -7.87402e-006c-0.00795276,-0.00825984 -0.0175787,-0.0148307 -0.0282126,-0.0194134 -0.0104488,-0.00450394 -0.0218898,-0.00689764 -0.0336496,-0.00689764l-1.87331 0c-0.0145157,0 -0.0280906,0.00329134 -0.0396614,0.00933465 -0.0116299,0.0060748 -0.0220748,0.0152835 -0.0302756,0.0270827l-0.000192913 -0.000133858 -0.622921 0.902677 -0.000748031 0.00233465c-0.00200787,0.00284252 -0.0033622,0.0050315 -0.00418504,0.00667323l0.000334646 0.000165354c-0.00198819,0.00407087 -0.00348425,0.00766929 -0.00458268,0.010878l-0.00125197 0.00375197 -0.00294094 0.0158425c-0.00061811,0.00335039 -0.00109843,0.00602362 -0.00109843,0.00627559 0,0.00379528 -0.000188976,0.00724803 -0.000511811,0.0104134l0 0.799787c0,0.0232362 0.00948425,0.0443465 0.0247913,0.0596535 0.0153031,0.0153031 0.0364134,0.0247913 0.0596496,0.0247913l0.393197 0c0.0399606,-0.0666142 0.0943071,-0.123469 0.158701,-0.166193 0.0824449,-0.0547087 0.181126,-0.0865827 0.286957,-0.0865827 0.105831,0 0.204504,0.031874 0.286953,0.0865787 0.0643937,0.0427283 0.11874,0.0995827 0.158701,0.166197l1.91087 0c0.0399606,-0.0666181 0.0943071,-0.123469 0.158701,-0.166197 0.0824488,-0.0547047 0.181126,-0.0865787 0.286957,-0.0865787 0.105835,0 0.204508,0.031874 0.286953,0.0865827 0.0643937,0.0427244 0.11874,0.0995787 0.158701,0.166193l0.393193 0c0.0233976,0 0.0444882,-0.00943701 0.0597165,-0.0246654 0.0152913,-0.0152874 0.0247283,-0.0364449 0.0247283,-0.0597795l0 -0.107433 0.000417323 0c0.000208661,-0.0996654 -0.0311181,-0.194941 -0.0858819,-0.274165 -0.0546732,-0.0790945 -0.132768,-0.142024 -0.226165,-0.17715l5.11811e-005 -0.000137795zm-0.73613 -0.502906l0.810661 0.303878 0.000417323 0c0.134701,0.0506575 0.247319,0.141413 0.326165,0.25548 0.0786811,0.113823 0.123685,0.251071 0.123386,0.395l0.000417323 0 0 0.107433c0,0.0821496 -0.0332835,0.156673 -0.0872323,0.210614 -0.0538268,0.0538268 -0.128189,0.0871693 -0.210551,0.0871693l-0.457894 0 -0.0703228 0 -0.0275945 -0.0654173c-0.0235354,-0.0557913 -0.0633465,-0.103276 -0.113587,-0.13661 -0.0483228,-0.032063 -0.106567,-0.050748 -0.169449,-0.050748 -0.0628858,0 -0.12113,0.018685 -0.169453,0.0507441 -0.0502402,0.0333346 -0.0900551,0.0808228 -0.113591,0.136614l-0.0275984 0.0654173 -0.0703189 0 -2.04027 0 -0.0703189 0 -0.0275984 -0.0654173c-0.0235354,-0.0557913 -0.0633504,-0.10328 -0.113591,-0.136614 -0.0483228,-0.0320591 -0.106563,-0.0507441 -0.169449,-0.0507441 -0.0628819,0 -0.12113,0.018685 -0.169453,0.050748 -0.0502402,0.0333346 -0.0900512,0.0808189 -0.113587,0.13661l-0.0275945 0.0654173 -0.0703228 0 -0.457898 0c-0.0821299,0 -0.156583,-0.0333937 -0.210484,-0.0872953 -0.0538976,-0.0539055 -0.0872953,-0.128366 -0.0872953,-0.210488l0 -0.807602c0,-0.00652756 0.000472441,-0.0116457 0.00123622,-0.0161417 0.000905512,-0.00959055 0.0025748,-0.0204094 0.00454724,-0.031063 0.00349213,-0.0188465 0.00894094,-0.0403189 0.0117165,-0.0495866l-2.75591e-005 -7.87402e-006 0.000271654 -0.000783465c0.000401575,-0.00129921 0.000728346,-0.00231102 0.000980315,-0.0029685l4.72441e-005 1.9685e-005c0.00406693,-0.0115118 0.0084685,-0.0222992 0.0132835,-0.0321457l0.000417323 0c0.00625591,-0.0127913 0.0129173,-0.0244764 0.020063,-0.0347677l0.000456693 -0.00143307 0.623445 -0.903437 0 -0.000417323c0.0275748,-0.0396693 0.0645079,-0.0715787 0.106945,-0.0937441 0.042563,-0.0222362 0.0898465,-0.0343425 0.137992,-0.0343425l1.87331 0c0.0407992,0 0.0808386,0.0084685 0.117815,0.0244016 0.0366024,0.0157795 0.0702402,0.0391102 0.098622,0.0690039l0.000417323 0.000417323 0.802858 0.852807z"/>
  <polygon class="fil2" points="1.00341,2.89858 4.72683,2.89858 4.72683,3.11192 1.00341,3.11192 "/>
  <polygon class="fil2" points="2.71963,2.02666 2.71963,3.03498 2.50629,3.03498 2.50629,2.02666 "/>
  <circle class="fil3" cx="2.01224" cy="4.28004" r="0.10523"/>
  <path class="fil2" d="M2.01224 3.76008c0.143567,0 0.273555,0.0582047 0.367654,0.152299 0.0940945,0.0940984 0.152299,0.224091 0.152299,0.367657 0,0.143567 -0.0582047,0.273559 -0.152299,0.367654 -0.0940984,0.0940984 -0.224087,0.152299 -0.367654,0.152299 -0.143567,0 -0.273559,-0.0582047 -0.367657,-0.152299 -0.0940945,-0.0940984 -0.152299,-0.224087 -0.152299,-0.367654 0,-0.143567 0.0582047,-0.273559 0.152299,-0.367654 0.0940945,-0.0940945 0.224091,-0.152303 0.367657,-0.152303zm0.216819 0.303134c-0.0554803,-0.0554764 -0.132138,-0.0897953 -0.216819,-0.0897953 -0.0846811,0 -0.161346,0.0343228 -0.216823,0.0897992 -0.0554764,0.0554764 -0.0897953,0.132138 -0.0897953,0.216819 0,0.0846772 0.0343189,0.161339 0.0897953,0.216819 0.0554803,0.0554764 0.132142,0.0897953 0.216823,0.0897953 0.0846811,0 0.161343,-0.0343189 0.216819,-0.0897953 0.0554764,-0.0554764 0.0897953,-0.132138 0.0897953,-0.216819 0,-0.0846811 -0.0343189,-0.161343 -0.0897953,-0.216823z"/>
  <circle class="fil3" cx="4.81442" cy="4.28004" r="0.10523"/>
  <path class="fil2" d="M4.81442 3.76008c0.143567,0 0.273563,0.0582087 0.367657,0.152303 0.0940945,0.0940945 0.152299,0.224087 0.152299,0.367654 0,0.143567 -0.0582047,0.273555 -0.152299,0.367654 -0.0940984,0.0940945 -0.224091,0.152299 -0.367657,0.152299 -0.143567,0 -0.273555,-0.0582008 -0.367654,-0.152299 -0.0940945,-0.0940945 -0.152299,-0.224087 -0.152299,-0.367654 0,-0.143567 0.0582047,-0.273559 0.152299,-0.367657 0.0940984,-0.0940945 0.224087,-0.152299 0.367654,-0.152299zm0.216823 0.303138c-0.0554764,-0.0554764 -0.132142,-0.0897992 -0.216823,-0.0897992 -0.0846811,0 -0.161339,0.0343189 -0.216819,0.0897953 -0.0554764,0.0554803 -0.0897953,0.132142 -0.0897953,0.216823 0,0.0846811 0.0343189,0.161343 0.0897953,0.216819 0.0554764,0.0554764 0.132138,0.0897953 0.216819,0.0897953 0.0846811,0 0.161343,-0.0343189 0.216823,-0.0897953 0.0554764,-0.0554803 0.0897953,-0.132142 0.0897953,-0.216819 0,-0.0846811 -0.0343189,-0.161343 -0.0897953,-0.216819z"/>
 </g>
</svg>
